<svg xmlns="http://www.w3.org/2000/svg" width="900" height="419" viewBox="0 0 900 419">
  <g id="Groupe_8" data-name="Groupe 8" transform="translate(-91 -360)">
    <text id="Hotel" transform="translate(608 713)" fill="#fff" font-size="200" font-family="EdwardianScriptITC, Edwardian Script ITC"><tspan x="0" y="0">Hotel</tspan></text>
    <g id="LOGO" transform="translate(-116 75.998)">
      <text id="P" transform="translate(259 521.002)" fill="#fff" font-size="161" font-family="Roboto-Bold, Roboto" font-weight="700"><tspan x="-51.924" y="0">P</tspan></text>
      <g id="ship" transform="translate(342.254 408.37)">
        <path id="Tracé_1" data-name="Tracé 1" d="M153.748,51.35l-3.216,14.592c-5.57,25.1-25.261,42.99-53.659,42.99H59.53c-28.4,0-48.09-17.886-53.659-42.99L2.655,51.35a16.3,16.3,0,0,1,9.492-17.965l11.14-4.472L66.513,11.576a31.163,31.163,0,0,1,23.377,0l43.226,17.337,11.141,4.472A16.3,16.3,0,0,1,153.748,51.35Z" transform="translate(-27.328 16.973)" fill="#006d77"/>
        <path id="Tracé_2" data-name="Tracé 2" d="M114.829,28.535V58.346L71.6,41.008a31.673,31.673,0,0,0-23.378,0L5,58.346V28.535A23.6,23.6,0,0,1,28.535,5h62.76A23.6,23.6,0,0,1,114.829,28.535Z" transform="translate(-9.039 -12.465)" fill="#83c5be" opacity="0.4"/>
        <path id="Tracé_3" data-name="Tracé 3" d="M48.725,25.535H9.5V9.845A7.868,7.868,0,0,1,17.345,2H40.88a7.868,7.868,0,0,1,7.845,7.845Z" transform="translate(21.763 -33)" fill="#83c5be"/>
      </g>
      <path id="Soustraction_2" data-name="Soustraction 2" d="M32.031-282H8.594v-94.766H-25.781V-395.75H66.875v18.985H32.031Zm-212.5,0H-182.3c.088-.879.133-1.755.133-2.606,0-4.6-.92-11.154-5.3-16.222h6.3c5.494,0,9.844-1.328,12.929-3.946s4.648-6.285,4.648-10.9c0-10.367-5.441-15.7-16.172-15.859H-201.25v23.546a42.91,42.91,0,0,0-7.325-.589,63.85,63.85,0,0,0-16.113,2.052V-395.75h39.844a75.141,75.141,0,0,1,18.2,1.982,37.425,37.425,0,0,1,13.2,5.947,25.209,25.209,0,0,1,8.027,9.775,32.038,32.038,0,0,1,2.676,13.467,28.076,28.076,0,0,1-1.074,7.861,24.54,24.54,0,0,1-3.223,6.865,24.07,24.07,0,0,1-5.137,5.517,26.757,26.757,0,0,1-6.816,3.818,26.287,26.287,0,0,1,7.822,3.3,23.144,23.144,0,0,1,5.967,5.527,23.851,23.851,0,0,1,3.779,7.383,29.955,29.955,0,0,1,1.26,8.867,37.056,37.056,0,0,1-2.617,14.414,26.438,26.438,0,0,1-7.852,10.43,35.879,35.879,0,0,1-12.7,6.367A64.3,64.3,0,0,1-180.469-282Zm-20.781-94.766v28.671h17.344c5.884-.1,10.359-1.345,13.3-3.691s4.434-5.862,4.434-10.449c0-5.132-1.512-8.877-4.493-11.132s-7.75-3.4-14.18-3.4Zm.235,94.766h-23.673v-10.339a46.866,46.866,0,0,1,15.527-2.673c3.881,0,6.925.7,9.049,2.067,1.793,1.158,1.943,2.139,1.943,2.967,0,.187-.08,2-2.846,7.977Zm105.35-1.744h0a45.125,45.125,0,0,1-6.991-3.49,43.456,43.456,0,0,1-9.844-8.252,48.842,48.842,0,0,1-7.344-11.162,59.809,59.809,0,0,1-4.59-13.565,76.339,76.339,0,0,1-1.582-15.459V-341.3a79.024,79.024,0,0,1,1.513-15.791,60.535,60.535,0,0,1,4.541-13.779,49.157,49.157,0,0,1,7.3-11.289,43.054,43.054,0,0,1,9.8-8.321A44.7,44.7,0,0,1-91.006-395.6a51.475,51.475,0,0,1,13.428-1.709A51.476,51.476,0,0,1-64.151-395.6,44.7,44.7,0,0,1-52.3-390.477a43.058,43.058,0,0,1,9.8,8.321,49.157,49.157,0,0,1,7.3,11.289,60.6,60.6,0,0,1,4.541,13.76,78.507,78.507,0,0,1,1.514,15.732v5.079a80.063,80.063,0,0,1-1.485,15.762,60.336,60.336,0,0,1-4.453,13.692,49.668,49.668,0,0,1-5.2,8.715,43.552,43.552,0,0,1-6.652,7.074,32.56,32.56,0,0,0-15.063-3.36c-11.04,0-22.368,3.59-33.672,10.67Zm18.087-94.194c-7.827,0-13.952,3.089-18.2,9.18s-6.433,15.148-6.484,26.915v5.547c0,11.56,2.155,20.655,6.406,27.032s10.454,9.609,18.437,9.609c7.827,0,13.926-3.115,18.125-9.258s6.354-15.224,6.406-26.992v-5.547c0-11.871-2.155-21.018-6.406-27.188S-69.7-377.938-77.578-377.938Z" transform="translate(1036.383 802.002)" fill="#fff"/>
      <path id="Soustraction_3" data-name="Soustraction 3" d="M-113.439-393H-180a5.006,5.006,0,0,1-5-5V-505a5.005,5.005,0,0,1,5-5h89a5.006,5.006,0,0,1,5,5v88.173a45.488,45.488,0,0,0-18.526,11.3A45.905,45.905,0,0,0-113.438-393Zm-43.34-94.094h0V-416h47.656v-11.768H-142.13V-446.81H-114v-11.474H-142.13v-16.943h32.91v-11.866h-47.559Z" transform="translate(882 916)" fill="#83c5be"/>
      <text id="QU" transform="translate(583 520.002)" fill="#fff" font-size="160" font-family="Roboto-Bold, Roboto" font-weight="700"><tspan x="-107.891" y="0">QU</tspan></text>
    </g>
    <text id="Le" transform="translate(91 471)" fill="#fff" font-size="130" font-family="EdwardianScriptITC, Edwardian Script ITC"><tspan x="0" y="0">Le</tspan></text>
  </g>
</svg>
